<svg xmlns="http://www.w3.org/2000/svg" viewBox="0 0 512 512">
  <defs>
    <linearGradient id="bg" x1="0%" y1="0%" x2="100%" y2="100%">
      <stop offset="0%" stop-color="#7aa2f7"/>
      <stop offset="100%" stop-color="#5d7dc4"/>
    </linearGradient>
    <linearGradient id="doc" x1="0%" y1="0%" x2="0%" y2="100%">
      <stop offset="0%" stop-color="#f7f8fa"/>
      <stop offset="100%" stop-color="#dde2eb"/>
    </linearGradient>
  </defs>

  <rect width="512" height="512" rx="96" fill="url(#bg)"/>

  <g transform="translate(96 80)">
    <rect x="0" y="0" width="320" height="360" rx="24" fill="url(#doc)"/>
    <rect x="0" y="0" width="320" height="56" rx="24" fill="#2a2f3a"/>
    <rect x="0" y="40" width="320" height="16" fill="#2a2f3a"/>

    <circle cx="28" cy="28" r="6" fill="#f7768e"/>
    <circle cx="50" cy="28" r="6" fill="#e0af68"/>
    <circle cx="72" cy="28" r="6" fill="#9ece6a"/>

    <g fill="#2a2f3a">
      <rect x="40" y="92" width="180" height="16" rx="8"/>
      <rect x="40" y="124" width="240" height="12" rx="6" opacity="0.5"/>
      <rect x="40" y="148" width="200" height="12" rx="6" opacity="0.5"/>
      <rect x="40" y="172" width="220" height="12" rx="6" opacity="0.5"/>
    </g>

    <g transform="translate(40 220)">
      <rect x="0" y="0" width="80" height="64" rx="10" fill="#7aa2f7"/>
      <text x="40" y="42" text-anchor="middle" font-family="Arial, sans-serif" font-size="22" font-weight="700" fill="#ffffff">MD</text>
    </g>

    <g fill="#2a2f3a">
      <rect x="40" y="306" width="180" height="10" rx="5" opacity="0.4"/>
      <rect x="40" y="326" width="140" height="10" rx="5" opacity="0.4"/>
    </g>
  </g>
</svg>
